<mxfile host="Electron" modified="2023-09-25T15:18:33.398Z" agent="Mozilla/5.0 (Windows NT 10.0; Win64; x64) AppleWebKit/537.36 (KHTML, like Gecko) draw.io/21.7.5 Chrome/114.0.5735.289 Electron/25.8.1 Safari/537.36" etag="kGQrUBpgLAlquhiWRnQe" version="21.7.5" type="device">
  <diagram name="PÃ¡gina-1" id="uIaeZG-4yjtN7OTXWmK6">
    <mxGraphModel dx="896" dy="820" grid="1" gridSize="10" guides="1" tooltips="1" connect="1" arrows="1" fold="1" page="1" pageScale="1" pageWidth="827" pageHeight="1169" math="0" shadow="0">
      <root>
        <mxCell id="0" />
        <mxCell id="1" parent="0" />
        <mxCell id="pbtrpqhuKSfXlA21J-6y-5" value="" style="edgeStyle=orthogonalEdgeStyle;rounded=0;orthogonalLoop=1;jettySize=auto;html=1;" edge="1" parent="1" source="pbtrpqhuKSfXlA21J-6y-1" target="pbtrpqhuKSfXlA21J-6y-3">
          <mxGeometry relative="1" as="geometry" />
        </mxCell>
        <mxCell id="pbtrpqhuKSfXlA21J-6y-1" value="inicio" style="ellipse;whiteSpace=wrap;html=1;fillColor=#0050ef;fontColor=#ffffff;strokeColor=#001DBC;" vertex="1" parent="1">
          <mxGeometry x="330" y="90" width="120" height="80" as="geometry" />
        </mxCell>
        <mxCell id="pbtrpqhuKSfXlA21J-6y-3" value="decri &quot;bon dia&quot;" style="rounded=1;whiteSpace=wrap;html=1;fillColor=#60a917;fontColor=#ffffff;strokeColor=#2D7600;" vertex="1" parent="1">
          <mxGeometry x="330" y="240" width="120" height="60" as="geometry" />
        </mxCell>
        <mxCell id="pbtrpqhuKSfXlA21J-6y-6" value="" style="edgeStyle=orthogonalEdgeStyle;rounded=0;orthogonalLoop=1;jettySize=auto;html=1;" edge="1" parent="1" source="pbtrpqhuKSfXlA21J-6y-4" target="pbtrpqhuKSfXlA21J-6y-3">
          <mxGeometry relative="1" as="geometry" />
        </mxCell>
        <mxCell id="pbtrpqhuKSfXlA21J-6y-4" value="fin" style="ellipse;whiteSpace=wrap;html=1;fillColor=#0050ef;fontColor=#ffffff;strokeColor=#001DBC;" vertex="1" parent="1">
          <mxGeometry x="340" y="360" width="120" height="80" as="geometry" />
        </mxCell>
      </root>
    </mxGraphModel>
  </diagram>
</mxfile>
